# xmcd
#
# Track frame offsets: 
#        150
#        15075
#        29522
#        45850
#        62527
#        82315
#        103507
#        122355
#        135780
#        151670
#        170282
#
# Disc length: 2539 seconds
#
# Revision: 0
# Processed by: cddbd v1.5.2PL0 Copyright (c) Steve Scherf et al.
# Submitted via: ExactAudioCopy v1.0b3
#
DISCID=6d09e90b
DTITLE=Top Quality - Magnum Opus
DYEAR=1994
DGENRE=Hip Hop
TTITLE0=Messages From Uptown
TTITLE1=Someone So Fly
TTITLE2=Caught Up In The Flizny
TTITLE3=Magnum Opus
TTITLE4=Check The Credentials
TTITLE5=What
TTITLE6=You Gotta Check It
TTITLE7=Something New
TTITLE8=I Can't Hear You
TTITLE9=Graveyard Shift
TTITLE10=U Know My Name
EXTD=
EXTT0=
EXTT1=
EXTT2=
EXTT3=
EXTT4=
EXTT5=
EXTT6=
EXTT7=
EXTT8=
EXTT9=
EXTT10=
PLAYORDER=
